<svg xmlns="http://www.w3.org/2000/svg" width="24" height="24" fill="none"><g clip-path="url(#a)"><path fill="#95BF46" d="m19.9 4.7-.2-.2-2-.1L16.3 3c-.1-.2-.4-.1-.5-.1l-.7.2C14.7 2 13.9.8 12.6.8h-.1c-.4-.5-.9-.7-1.3-.7-3 0-4.5 3.8-5 5.8l-2.1.6c-.7.2-.7.3-.8.9l-1.8 14L15 23.9l7.4-1.6-2.6-17.6Zm-5.6-1.3-1.1.3v-.2c0-.8-.1-1.4-.3-1.9.7 0 1.1.9 1.4 1.8Zm-2.2-1.6c.2.4.3 1.1.3 2V4l-2.4.7c.5-1.8 1.3-2.6 2-3Zm-1-1 .5.2c-1 .5-2 1.7-2.5 4l-2 .6C7.8 3.8 9 .9 11.2.9Z"/><path fill="#5E8E3E" d="m19.7 4.5-2-.1L16.3 3l-.2-.1-1 21 7.4-1.6-2.6-17.6-.2-.2Z"/><path fill="#fff" d="m12.6 8.6-1 2.7s-.7-.4-1.7-.4c-1.4 0-1.5.9-1.5 1.1 0 1.2 3.2 1.7 3.2 4.6 0 2.3-1.4 3.8-3.4 3.8-2.3 0-3.5-1.5-3.5-1.5l.6-2s1.3 1 2.3 1c.7 0 1-.5 1-1 0-1.6-2.7-1.6-2.7-4.3 0-2.2 1.6-4.4 4.8-4.4a4 4 0 0 1 1.9.4Z"/></g><defs><clipPath id="a"><path fill="#fff" d="M0 0h24v24H0z"/></clipPath></defs></svg>